<?xml version="1.0" encoding="utf-8"?>
<!-- Generator: Adobe Illustrator 16.0.0, SVG Export Plug-In . SVG Version: 6.00 Build 0)  -->
<!DOCTYPE svg PUBLIC "-//W3C//DTD SVG 1.1//EN" "http://www.w3.org/Graphics/SVG/1.1/DTD/svg11.dtd">
<svg version="1.1" id="Ebene_1" xmlns="http://www.w3.org/2000/svg" xmlns:xlink="http://www.w3.org/1999/xlink" x="0px" y="0px"
	 width="447px" height="307px" viewBox="0 0 447 307" enable-background="new 0 0 447 307" xml:space="preserve">
<path d="M405.45,250.39v-6.47h-21.16v35.061h21.16v-6.48H392.8v-8.12h11.16v-6.47H392.8v-7.521H405.45z M351.62,244.02v6.471h9.51
	v28.49h8.521v-28.49h9.56v-6.471H351.62z M337.72,243.92H327.36l-12.15,35.061h9.07l1.939-5.881h12.55l1.94,5.881h9.11
	L337.72,243.92z M328.36,266.63l4.13-12.45l4.14,12.45H328.36z M301.27,244.02l-10.01,24.101L281.2,244.02h-9.76v34.961h8.52v-19.73
	l8.11,19.73h6.33l8.109-19.73v19.73h8.521V244.02H301.27z M255.45,243.92v22.061l-14.24-22.061h-8.52v35.061h8.52V256.92
	l14.24,22.061h8.52V243.92H255.45z M222.06,248.57c-3.43-3.37-7.67-5.051-12.7-5.051c-5.03,0-9.28,1.681-12.75,5.051
	c-3.46,3.37-5.2,7.649-5.2,12.83c0,5.18,1.74,9.46,5.2,12.84c3.47,3.39,7.72,5.08,12.73,5.08c5.01,0,9.24-1.69,12.7-5.08
	c3.45-3.38,5.18-7.66,5.18-12.84C227.22,256.22,225.5,251.94,222.06,248.57z M216.04,268.72c-1.68,1.82-3.92,2.74-6.73,2.74
	c-2.8,0-5.04-0.92-6.72-2.74c-1.68-1.83-2.51-4.27-2.51-7.319c0-3.061,0.83-5.5,2.51-7.32c1.68-1.83,3.92-2.74,6.72-2.74
	c2.81,0,5.05,0.91,6.73,2.74c1.67,1.82,2.51,4.26,2.51,7.32C218.55,264.45,217.71,266.89,216.04,268.72z M177.47,244.02v7.15h8.51
	v-7.15H177.47z M169.8,264.21c-0.63-1.21-1.45-2.15-2.47-2.81c-1.01-0.67-2.13-1.221-3.36-1.67c-1.23-0.45-2.46-0.83-3.71-1.15
	c-1.24-0.311-2.37-0.64-3.38-0.99c-1.02-0.35-1.84-0.85-2.47-1.5c-0.63-0.64-0.95-1.5-0.95-2.56c0-1.061,0.34-1.88,1.02-2.44
	c0.68-0.57,1.56-0.85,2.62-0.85s1.93,0.34,2.61,1.02c0.68,0.681,1.09,1.65,1.22,2.92h9.27c-0.1-3.689-1.32-6.39-3.64-8.1
	s-5.37-2.561-9.14-2.561s-6.86,0.98-9.28,2.94c-2.43,1.96-3.64,4.56-3.64,7.82c0,1.66,0.32,3.09,0.95,4.3
	c0.63,1.21,1.45,2.14,2.46,2.79c1.01,0.649,2.13,1.21,3.36,1.67s2.47,0.85,3.71,1.17c1.25,0.32,2.38,0.66,3.39,1.021
	c1.01,0.369,1.83,0.869,2.46,1.489c0.63,0.641,0.95,1.45,0.95,2.45c0,0.99-0.35,1.811-1.05,2.46c-0.69,0.65-1.66,0.97-2.88,0.97
	c-2.63,0-4.05-1.39-4.29-4.18h-9.06c0,3.48,1.2,6.17,3.61,8.07c2.41,1.89,5.58,2.83,9.51,2.83c3.94,0,7.11-1.051,9.51-3.16
	c2.41-2.11,3.61-4.641,3.61-7.59C170.74,266.88,170.43,265.42,169.8,264.21z M137.58,264.21c-0.63-1.21-1.45-2.15-2.47-2.81
	c-1.01-0.67-2.13-1.221-3.36-1.67c-1.23-0.45-2.46-0.83-3.71-1.15c-1.24-0.311-2.37-0.64-3.38-0.99c-1.02-0.35-1.84-0.85-2.47-1.5
	c-0.63-0.64-0.95-1.5-0.95-2.56c0-1.061,0.34-1.88,1.02-2.44c0.68-0.57,1.56-0.85,2.62-0.85s1.93,0.34,2.61,1.02
	c0.68,0.681,1.09,1.65,1.22,2.92h9.27c-0.1-3.689-1.32-6.39-3.64-8.1c-2.32-1.71-5.37-2.561-9.14-2.561s-6.86,0.98-9.28,2.94
	c-2.43,1.96-3.64,4.56-3.64,7.82c0,1.66,0.32,3.09,0.95,4.3s1.45,2.14,2.46,2.79c1.01,0.649,2.13,1.21,3.36,1.67
	s2.47,0.85,3.71,1.17c1.25,0.32,2.38,0.66,3.39,1.021c1.01,0.369,1.83,0.869,2.46,1.489c0.63,0.641,0.95,1.45,0.95,2.45
	c0,0.99-0.35,1.811-1.05,2.46c-0.69,0.65-1.66,0.97-2.88,0.97c-2.63,0-4.05-1.39-4.29-4.18h-9.06c0,3.48,1.2,6.17,3.61,8.07
	c2.41,1.89,5.58,2.83,9.51,2.83c3.94,0,7.11-1.051,9.51-3.16c2.41-2.11,3.61-4.641,3.61-7.59
	C138.52,266.88,138.21,265.42,137.58,264.21z M97.04,254.13v24.851h8.52V254.13H97.04z M97.04,244.02v7.15h8.52v-7.15H97.04z
	 M79.81,244.02L69.8,268.12L59.74,244.02h-9.76v34.961h8.52v-19.73l8.11,19.73h6.33l8.12-19.73v19.73h8.51V244.02H79.81z
	 M177.47,254.13v24.851h8.51V254.13H177.47z"/>
<g>
	<path fill="#7F140B" d="M287.854,172.27c-0.857,1-0.866,2.535-0.02,3.545l14.006,16.812c0.498,0.593,1.227,1.203,2,1.203h0.062
		c0.753,0,1.472-0.556,1.981-1.112c10.533-11.46,18.561-25.607,23.214-40.46c0.231-0.739,0.133-1.541-0.269-2.203
		c-0.402-0.661-1.07-1.116-1.834-1.25l-21.428-3.774c-0.156-0.028-0.314-0.034-0.469-0.034c-1.124,0-2.153,0.721-2.538,1.813
		C299.271,156.143,294.323,164.73,287.854,172.27L287.854,172.27z"/>
	<path fill="#7F140B" d="M269.518,166.636l6.831,8.142c5.261-4.688,9.809-10.104,13.512-16.058l-9.197-5.312
		C277.566,158.32,273.815,162.773,269.518,166.636L269.518,166.636z"/>
	<path fill="#7F140B" d="M255.12,187.957c6.351-2.559,12.203-5.961,17.459-10.047l-6.836-8.146c-4.34,3.328-9.125,6.1-14.256,8.209
		L255.12,187.957z"/>
	<path fill="#7F140B" d="M288.755,133.795c-1.211,5.423-3.123,10.578-5.642,15.368l9.187,5.304
		c3.138-5.886,5.486-12.212,6.928-18.824L288.755,133.795z"/>
	<path fill="#7F140B" d="M292.439,85.941l-9.21,5.318c2.521,4.846,4.432,10.06,5.619,15.546l10.441-1.842
		C297.859,98.18,295.531,91.804,292.439,85.941L292.439,85.941z"/>
	<path fill="#7F140B" d="M280.798,87l9.201-5.312c-3.699-5.993-8.217-11.368-13.377-16l-6.816,8.124
		C274.048,77.672,277.745,82.114,280.798,87L280.798,87z"/>
	<path fill="#7F140B" d="M300.143,109.792l-10.451,1.843c0.375,2.769,0.586,5.591,0.586,8.465c0,3.012-0.226,5.973-0.638,8.873
		l10.463,1.846C301.111,124,301.163,116.937,300.143,109.792L300.143,109.792z"/>
	<path fill="#7F140B" d="M237.646,201.451v21.775c0,0.764,0.459,1.491,1.027,2.002c0.496,0.446,1.271,0.69,1.933,0.69
		c0.097,0,0.19-0.006,0.287-0.015c1.967-0.213,3.446-0.463,5.042-0.744c14.141-2.493,27.27-7.584,39.023-15.131
		c0.652-0.418,1.09-1.098,1.207-1.862c0.115-0.767-0.105-1.545-0.604-2.138l-14.063-16.696c-0.529-0.626-1.297-0.958-2.07-0.958
		c-0.471,0-0.963,0.123-1.391,0.379c-8.191,4.872-17.238,8.197-26.811,9.887c-0.094,0.014-0.295,0.025-0.428,0.039
		C238.171,198.957,237.646,200.535,237.646,201.451L237.646,201.451z"/>
	<path fill="#7F140B" d="M229.685,182.611v10.641c3.549-0.1,7.134-0.451,10.736-1.086c3.472-0.612,6.836-1.475,10.093-2.537
		l-3.63-9.971C241.438,181.408,235.667,182.426,229.685,182.611L229.685,182.611z"/>
	<path fill="#7F140B" d="M227.71,65.87c-29.95,0-54.23,24.28-54.23,54.23c0,29.95,24.28,54.23,54.23,54.23
		c29.96,0,54.24-24.28,54.24-54.23C281.95,90.15,257.67,65.87,227.71,65.87z M263.39,148.33c-4.05,5.31-9.25,9.67-15.229,12.74
		v-45.58l-14.51,35.26H222.34l-14.51-35.26v45.83c-5.95-2.95-11.14-7.2-15.23-12.36V88.25h17.45l17.99,43.09l17.89-43.09h17.46
		V148.33z"/>
	<path fill="#7F140B" d="M230.714,57.611c5.619,0.266,11.041,1.279,16.177,2.931l3.628-9.984
		c-6.319-2.078-12.974-3.301-19.805-3.575V57.611z"/>
	<path fill="#7F140B" d="M204.788,50.608l3.631,9.974c5.429-1.759,11.181-2.79,17.146-2.992V46.954
		c-3.492,0.107-7.017,0.453-10.558,1.078C211.491,48.651,208.084,49.525,204.788,50.608L204.788,50.608z"/>
	<path fill="#7F140B" d="M178.994,174.677l6.819-8.126c-4.237-3.824-7.936-8.225-11-13.068l-9.207,5.314
		C169.317,164.748,173.838,170.081,178.994,174.677L178.994,174.677z"/>
	<path fill="#7F140B" d="M189.584,169.684l-6.834,8.145c5.388,4.193,11.356,7.623,17.721,10.184l3.629-9.977
		C198.869,175.902,193.995,173.081,189.584,169.684L189.584,169.684z"/>
	<path fill="#7F140B" d="M163.152,154.553l9.203-5.313c-2.543-4.82-4.47-10.012-5.688-15.473l-10.452,1.842
		C157.677,142.367,160.038,148.716,163.152,154.553L163.152,154.553z"/>
	<path fill="#7F140B" d="M155.344,130.785l10.442-1.842c-0.409-2.891-0.634-5.842-0.634-8.844c0-2.884,0.212-5.715,0.589-8.494
		l-10.472-1.847C154.296,116.581,154.286,123.643,155.344,130.785L155.344,130.785z"/>
	<path fill="#7F140B" d="M162.97,86.028c-3.117,5.912-5.436,12.266-6.845,18.903l10.463,1.845
		c1.181-5.447,3.074-10.625,5.573-15.442L162.97,86.028z"/>
	<path fill="#7F140B" d="M165.395,81.767l9.189,5.305c3.085-4.952,6.834-9.448,11.137-13.347l-6.825-8.134
		C173.63,70.316,169.087,75.771,165.395,81.767L165.395,81.767z"/>
	<path fill="#7F140B" d="M205.088,189.693c6.529,2.129,13.41,3.365,20.477,3.565v-10.651c-5.853-0.199-11.502-1.19-16.84-2.889
		L205.088,189.693z"/>
	<path fill="#7F140B" d="M169.623,206.002c-0.494,0.594-0.71,1.371-0.592,2.134c0.118,0.765,0.558,1.438,1.209,1.856
		c13.393,8.582,28.004,13.939,43.429,15.918c0.114,0.016,0.228,0.023,0.343,0.023c0.65,0,1.307-0.236,1.801-0.672
		c0.581-0.51,0.937-1.246,0.937-2.02v-21.793c0-1.324-0.986-2.452-2.295-2.659c-9.651-1.526-18.662-4.815-27.499-10.056
		c-0.429-0.254-0.902-0.377-1.372-0.377c-0.777,0-1.543,0.336-2.07,0.969L169.623,206.002z"/>
	<path fill="#7F140B" d="M126.601,150.109c-0.402,0.66-0.501,1.525-0.271,2.264c4.636,14.865,12.662,28.896,23.211,40.341
		c0.51,0.554,1.228,1.115,1.979,1.115h0.063c0.774,0,1.502-0.616,2-1.208l13.98-16.907c0.847-1.011,0.839-2.485-0.021-3.485
		c-6.468-7.524-11.41-16.084-14.69-25.443c-0.384-1.094-1.414-1.797-2.539-1.797c-0.156,0-0.312,0.021-0.47,0.047l-21.41,3.791
		C127.671,148.962,127.004,149.447,126.601,150.109L126.601,150.109z"/>
	<path fill="#7F140B" d="M152.316,89.24L133.48,78.366c-0.414-0.239-0.879-0.36-1.346-0.36c-0.29,0-0.581,0.046-0.862,0.141
		c-0.733,0.248-1.324,0.799-1.622,1.513c-5.999,14.363-8.784,30.176-8.055,45.731c0.036,0.772,0.403,1.493,1.008,1.977
		c0.48,0.385,1.075,0.59,1.681,0.59c0.155,0,0.312-0.014,0.468-0.041l21.409-3.775c1.299-0.229,2.241-1.365,2.225-2.684
		c-0.119-9.916,1.598-19.65,5.102-28.934C153.954,91.289,153.458,89.9,152.316,89.24L152.316,89.24z"/>
	<path fill="#7F140B" d="M190.068,48.11l-7.453-20.476c-0.265-0.728-0.83-1.306-1.551-1.588c-0.316-0.123-0.647-0.184-0.979-0.184
		c-0.426,0-0.851,0.101-1.237,0.301c-13.785,7.134-26.078,17.467-35.552,29.882c-0.469,0.615-0.651,1.403-0.499,2.162
		c0.152,0.759,0.623,1.416,1.293,1.803l18.85,10.883c0.421,0.243,0.885,0.361,1.345,0.361c0.784,0,1.556-0.343,2.084-0.986
		c6.297-7.682,13.863-14.038,22.489-18.89C190.006,50.731,190.518,49.349,190.068,48.11L190.068,48.11z"/>
	<path fill="#7F140B" d="M203.818,62.273l-3.633-9.98c-6.381,2.584-12.263,6.018-17.534,10.145l6.838,8.15
		C193.847,67.218,198.655,64.408,203.818,62.273L203.818,62.273z"/>
	<path fill="#7F140B" d="M252.878,20.376c0.265-0.728,0.203-1.534-0.168-2.212c-0.371-0.68-1.018-1.166-1.772-1.336
		c-7.58-1.702-15.36-2.563-23.123-2.563c-6.176,0-12.421,0.548-18.558,1.63c-1.579,0.279-3.184,0.599-4.77,0.953
		c-0.756,0.169-1.403,0.655-1.775,1.335c-0.372,0.679-0.433,1.485-0.168,2.214l7.448,20.461c0.393,1.078,1.415,1.771,2.529,1.771
		c0.167,0,0.337-0.016,0.507-0.048c0.305-0.058,0.607-0.114,0.905-0.166c4.554-0.804,9.193-1.211,13.789-1.211
		c4.9,0,9.835,0.464,14.67,1.377c0.168,0.032,0.336,0.047,0.502,0.047c1.112,0,2.136-0.693,2.528-1.771L252.878,20.376z"/>
	<path fill="#7F140B" d="M272.876,62.529c-5.399-4.232-11.383-7.696-17.771-10.282l-3.631,9.971
		c5.256,2.16,10.146,5.017,14.57,8.452L272.876,62.529z"/>
	<path fill="#7F140B" d="M312.632,58.198c0.152-0.76-0.03-1.548-0.502-2.164c-9.45-12.364-21.75-22.687-35.567-29.854
		c-0.388-0.201-0.813-0.302-1.239-0.302c-0.33,0-0.662,0.061-0.978,0.184c-0.722,0.281-1.287,0.859-1.552,1.587l-7.453,20.473
		c-0.45,1.238,0.062,2.62,1.209,3.267c8.66,4.874,16.236,11.223,22.519,18.869c0.527,0.641,1.298,0.983,2.082,0.983
		c0.46,0,0.923-0.118,1.345-0.361l18.844-10.878C312.009,59.614,312.479,58.957,312.632,58.198L312.632,58.198z"/>
	<path fill="#7F140B" d="M332.341,102.078c-1.352-7.663-3.562-15.206-6.568-22.419c-0.298-0.715-0.889-1.267-1.623-1.515
		c-0.281-0.095-0.572-0.142-0.861-0.142c-0.469,0-0.934,0.122-1.348,0.361l-18.845,10.88c-1.142,0.659-1.638,2.048-1.175,3.281
		c1.734,4.601,3.047,9.389,3.9,14.23c0.854,4.838,1.258,9.785,1.203,14.704c-0.016,1.317,0.926,2.452,2.225,2.683l21.431,3.779
		c0.155,0.027,0.312,0.041,0.468,0.041c0.607,0,1.201-0.206,1.684-0.591c0.604-0.484,0.971-1.205,1.006-1.978
		C334.194,117.581,333.691,109.737,332.341,102.078L332.341,102.078z"/>
</g>
</svg>
